<?xml version="1.0" encoding="UTF-8"?>
<!DOCTYPE svg PUBLIC "-//W3C//DTD SVG 1.1//EN" "http://www.w3.org/Graphics/SVG/1.1/DTD/svg11.dtd">
<svg xmlns="http://www.w3.org/2000/svg" version="1.1" width="157px" height="146px" style="shape-rendering:geometricPrecision; text-rendering:geometricPrecision; image-rendering:optimizeQuality; fill-rule:evenodd; clip-rule:evenodd" xmlns:xlink="http://www.w3.org/1999/xlink">
<g><path style="opacity:1" fill="#e7e7e7" d="M -0.5,-0.5 C 51.8333,-0.5 104.167,-0.5 156.5,-0.5C 156.5,48.1667 156.5,96.8333 156.5,145.5C 104.167,145.5 51.8333,145.5 -0.5,145.5C -0.5,96.8333 -0.5,48.1667 -0.5,-0.5 Z"/></g>
<g><path style="opacity:1" fill="#a497a4" d="M 86.5,135.5 C 78.4903,135.356 70.4903,135.023 62.5,134.5C 35.5951,126.756 19.0951,109.089 13,81.5C 9.92437,42.4751 27.091,17.3084 64.5,6C 95.4103,2.20658 119.244,13.3732 136,39.5C 149.282,69.0804 144.782,95.5804 122.5,119C 112.1,128.034 100.1,133.534 86.5,135.5 Z"/></g>
<g><path style="opacity:1" fill="#fec2c7" d="M 111.5,24.5 C 94.8681,40.6316 78.3681,56.9649 62,73.5C 61.8213,69.9748 61.3213,66.6414 60.5,63.5C 59.0387,62.3143 57.7054,62.3143 56.5,63.5C 55.6728,68.9851 55.1728,74.6518 55,80.5C 50.6298,84.7022 46.4632,89.0355 42.5,93.5C 40.1394,91.8061 38.1394,89.8061 36.5,87.5C 22.3413,61.4607 26.3413,38.6273 48.5,19C 65.5172,7.5152 83.1838,6.5152 101.5,16C 105.613,17.9481 108.946,20.7814 111.5,24.5 Z"/></g>
<g><path style="opacity:1" fill="#fed3d7" d="M 60.5,18.5 C 66.0001,17.8314 68.1667,20.1647 67,25.5C 60.0954,28.9583 54.0954,33.6249 49,39.5C 47.1288,44.0812 44.6288,48.2478 41.5,52C 38.1576,52.494 35.8242,51.1607 34.5,48C 39.5024,34.8371 48.1691,25.0037 60.5,18.5 Z"/></g>
<g><path style="opacity:1" fill="#f08c98" d="M 111.5,24.5 C 119.573,31.3032 124.573,39.9698 126.5,50.5C 129.042,72.9405 121.042,90.2738 102.5,102.5C 95.1667,102.5 87.8333,102.5 80.5,102.5C 80.5,95.1667 80.5,87.8333 80.5,80.5C 87.1667,80.5 93.8333,80.5 100.5,80.5C 100.5,74.5 100.5,68.5 100.5,62.5C 99.1779,62.33 98.0113,62.6634 97,63.5C 96.5012,67.4862 96.3345,71.4862 96.5,75.5C 84.5,75.5 72.5,75.5 60.5,75.5C 60.5,71.5 60.5,67.5 60.5,63.5C 61.3213,66.6414 61.8213,69.9748 62,73.5C 78.3681,56.9649 94.8681,40.6316 111.5,24.5 Z"/></g>
<g><path style="opacity:1" fill="#e15968" d="M 60.5,63.5 C 60.5,67.5 60.5,71.5 60.5,75.5C 72.5,75.5 84.5,75.5 96.5,75.5C 96.3345,71.4862 96.5012,67.4862 97,63.5C 98.0113,62.6634 99.1779,62.33 100.5,62.5C 100.5,68.5 100.5,74.5 100.5,80.5C 93.8333,80.5 87.1667,80.5 80.5,80.5C 80.5,87.8333 80.5,95.1667 80.5,102.5C 79.1667,102.5 77.8333,102.5 76.5,102.5C 75.536,95.2537 75.2027,87.9204 75.5,80.5C 69.1667,80.5 62.8333,80.5 56.5,80.5C 56.5,74.8333 56.5,69.1667 56.5,63.5C 57.7054,62.3143 59.0387,62.3143 60.5,63.5 Z"/></g>
<g><path style="opacity:1" fill="#ef8c98" d="M 56.5,63.5 C 56.5,69.1667 56.5,74.8333 56.5,80.5C 62.8333,80.5 69.1667,80.5 75.5,80.5C 75.2027,87.9204 75.536,95.2537 76.5,102.5C 69.0796,102.203 61.7463,102.536 54.5,103.5C 49.7212,101.109 45.7212,97.776 42.5,93.5C 46.4632,89.0355 50.6298,84.7022 55,80.5C 55.1728,74.6518 55.6728,68.9851 56.5,63.5 Z"/></g>
<g><path style="opacity:1" fill="#978096" d="M 36.5,87.5 C 38.1394,89.8061 40.1394,91.8061 42.5,93.5C 45.7212,97.776 49.7212,101.109 54.5,103.5C 54.5,104.167 54.1667,104.5 53.5,104.5C 50.337,103.679 47.6703,102.012 45.5,99.5C 42.8496,96.3489 40.0162,93.3489 37,90.5C 36.5172,89.552 36.3505,88.552 36.5,87.5 Z"/></g>
<g><path style="opacity:1" fill="#987e94" d="M 126.5,50.5 C 130.711,72.5222 123.711,90.1889 105.5,103.5C 104.74,106.187 104.073,108.853 103.5,111.5C 103.167,111.5 102.833,111.5 102.5,111.5C 102.5,110.833 102.167,110.5 101.5,110.5C 101.5,110.167 101.5,109.833 101.5,109.5C 102.167,109.5 102.5,109.167 102.5,108.5C 103.833,106.833 103.833,105.167 102.5,103.5C 102.5,103.167 102.5,102.833 102.5,102.5C 121.042,90.2738 129.042,72.9405 126.5,50.5 Z"/></g>
<g><path style="opacity:1" fill="#524754" d="M 102.5,103.5 C 103.833,105.167 103.833,106.833 102.5,108.5C 93.1607,108.666 83.8274,108.5 74.5,108C 75.8333,106.667 77.1667,105.333 78.5,104C 86.4931,103.5 94.4931,103.334 102.5,103.5 Z"/></g>
<g><path style="opacity:1" fill="#645565" d="M 76.5,102.5 C 77.8333,102.5 79.1667,102.5 80.5,102.5C 87.8333,102.5 95.1667,102.5 102.5,102.5C 102.5,102.833 102.5,103.167 102.5,103.5C 94.4931,103.334 86.4931,103.5 78.5,104C 77.1667,105.333 75.8333,106.667 74.5,108C 83.8274,108.5 93.1607,108.666 102.5,108.5C 102.5,109.167 102.167,109.5 101.5,109.5C 85.8277,109.381 70.1611,109.047 54.5,108.5C 53.7659,107.292 53.4326,105.959 53.5,104.5C 54.1667,104.5 54.5,104.167 54.5,103.5C 61.7463,102.536 69.0796,102.203 76.5,102.5 Z"/></g>
<g><path style="opacity:1" fill="#786578" d="M 54.5,108.5 C 70.1611,109.047 85.8277,109.381 101.5,109.5C 101.5,109.833 101.5,110.167 101.5,110.5C 85.7855,110.197 70.1189,110.531 54.5,111.5C 55.8333,110.5 55.8333,109.5 54.5,108.5 Z"/></g>
<g><path style="opacity:1" fill="#675767" d="M 101.5,110.5 C 102.167,110.5 102.5,110.833 102.5,111.5C 94.16,111.334 85.8267,111.5 77.5,112C 76.3128,113.019 75.3128,114.186 74.5,115.5C 83.8096,116.498 93.1429,116.832 102.5,116.5C 86.9983,117.467 71.3316,117.467 55.5,116.5C 53.31,115.252 52.9766,113.586 54.5,111.5C 70.1189,110.531 85.7855,110.197 101.5,110.5 Z"/></g>
<g><path style="opacity:1" fill="#544754" d="M 102.5,111.5 C 102.833,111.5 103.167,111.5 103.5,111.5C 103.5,111.833 103.5,112.167 103.5,112.5C 103.768,114.099 103.434,115.432 102.5,116.5C 93.1429,116.832 83.8096,116.498 74.5,115.5C 75.3128,114.186 76.3128,113.019 77.5,112C 85.8267,111.5 94.16,111.334 102.5,111.5 Z"/></g>
<g><path style="opacity:1" fill="#7b687b" d="M 103.5,112.5 C 104.756,114.726 104.756,117.059 103.5,119.5C 95.2517,118.531 86.9183,118.198 78.5,118.5C 70.8333,118.5 63.1667,118.5 55.5,118.5C 55.5,117.833 55.5,117.167 55.5,116.5C 71.3316,117.467 86.9983,117.467 102.5,116.5C 103.434,115.432 103.768,114.099 103.5,112.5 Z"/></g>
<g><path style="opacity:1" fill="#665868" d="M 55.5,118.5 C 63.1667,118.5 70.8333,118.5 78.5,118.5C 77.0401,120.463 75.3734,122.296 73.5,124C 83.1609,124.5 92.8276,124.666 102.5,124.5C 100.393,125.468 98.0593,125.802 95.5,125.5C 84.5,125.5 73.5,125.5 62.5,125.5C 60.1432,125.663 57.8098,125.497 55.5,125C 52.8862,122.757 52.8862,120.59 55.5,118.5 Z"/></g>
<g><path style="opacity:1" fill="#544855" d="M 78.5,118.5 C 86.9183,118.198 95.2517,118.531 103.5,119.5C 103.5,119.833 103.5,120.167 103.5,120.5C 103.768,122.099 103.434,123.432 102.5,124.5C 92.8276,124.666 83.1609,124.5 73.5,124C 75.3734,122.296 77.0401,120.463 78.5,118.5 Z"/></g>
<g><path style="opacity:1" fill="#a37386" d="M 62.5,125.5 C 73.5,125.5 84.5,125.5 95.5,125.5C 95.5,125.833 95.5,126.167 95.5,126.5C 84.6536,126.172 73.9869,126.506 63.5,127.5C 62.6618,127.158 62.3284,126.492 62.5,125.5 Z"/></g>
<g><path style="opacity:1" fill="#e35a69" d="M 63.5,127.5 C 73.9869,126.506 84.6536,126.172 95.5,126.5C 93.5201,128.105 91.1868,129.272 88.5,130C 80.3302,131.026 72.3302,130.526 64.5,128.5C 64.5,127.833 64.1667,127.5 63.5,127.5 Z"/></g>
<g><path style="opacity:1" fill="#938096" d="M 103.5,120.5 C 104.979,123.143 104.646,125.643 102.5,128C 97.5251,129.64 92.5251,131.306 87.5,133C 81.5,133.667 75.5,133.667 69.5,133C 66.8854,132.388 65.2187,130.888 64.5,128.5C 72.3302,130.526 80.3302,131.026 88.5,130C 91.1868,129.272 93.5201,128.105 95.5,126.5C 95.5,126.167 95.5,125.833 95.5,125.5C 98.0593,125.802 100.393,125.468 102.5,124.5C 103.434,123.432 103.768,122.099 103.5,120.5 Z"/></g>
<g><path style="opacity:1" fill="#bdb5bd" d="M 62.5,134.5 C 70.4903,135.023 78.4903,135.356 86.5,135.5C 83.5185,136.165 80.3518,136.498 77,136.5C 71.9104,136.656 67.0771,135.99 62.5,134.5 Z"/></g>
</svg>
