<?xml version="1.0" encoding="UTF-8"?>
<!DOCTYPE svg PUBLIC "-//W3C//DTD SVG 1.1//EN" "http://www.w3.org/Graphics/SVG/1.1/DTD/svg11.dtd">
<svg xmlns="http://www.w3.org/2000/svg" version="1.1" width="140px" height="142px" style="shape-rendering:geometricPrecision; text-rendering:geometricPrecision; image-rendering:optimizeQuality; fill-rule:evenodd; clip-rule:evenodd" xmlns:xlink="http://www.w3.org/1999/xlink">
<g><path style="opacity:1" fill="#e8e7e7" d="M -0.5,-0.5 C 46.1667,-0.5 92.8333,-0.5 139.5,-0.5C 139.5,46.8333 139.5,94.1667 139.5,141.5C 92.8333,141.5 46.1667,141.5 -0.5,141.5C -0.5,94.1667 -0.5,46.8333 -0.5,-0.5 Z"/></g>
<g><path style="opacity:1" fill="#f07c87" d="M 99.5,11.5 C 109.292,10.758 117.292,14.0913 123.5,21.5C 117.222,26.4397 111.222,31.7731 105.5,37.5C 98.7534,30.7896 90.7534,26.123 81.5,23.5C 86.469,18.0112 92.469,14.0112 99.5,11.5 Z"/></g>
<g><path style="opacity:1" fill="#a497a3" d="M 22.5,23.5 C 31.5532,33.5547 41.2199,42.888 51.5,51.5C 41.5271,60.8063 31.8604,70.4729 22.5,80.5C 20.1541,89.394 17.6541,98.394 15,107.5C 2.64326,87.9642 0.143263,67.1308 7.5,45C 10.2866,39.2574 13.4533,33.7574 17,28.5C 18.7038,26.6266 20.5372,24.9599 22.5,23.5 Z"/></g>
<g><path style="opacity:1" fill="#e15868" d="M 123.5,21.5 C 126.601,26.8403 127.268,32.507 125.5,38.5C 122.739,45.0143 118.739,50.681 113.5,55.5C 111.07,49.602 108.404,43.602 105.5,37.5C 111.222,31.7731 117.222,26.4397 123.5,21.5 Z"/></g>
<g><path style="opacity:1" fill="#f9f3f4" d="M 77.5,28.5 C 89.0612,31.2557 97.8945,37.589 104,47.5C 105.78,52.0033 106.613,56.67 106.5,61.5C 105.738,63.2624 104.404,64.2624 102.5,64.5C 103.07,57.5424 101.07,51.5424 96.5,46.5C 93.7891,42.7881 90.4558,39.7881 86.5,37.5C 81.7669,35.2556 76.7669,33.5889 71.5,32.5C 72.7079,29.9558 74.7079,28.6225 77.5,28.5 Z"/></g>
<g><path style="opacity:1" fill="#947e94" d="M 81.5,23.5 C 90.7534,26.123 98.7534,30.7896 105.5,37.5C 108.404,43.602 111.07,49.602 113.5,55.5C 111.192,57.4707 108.858,59.4707 106.5,61.5C 106.613,56.67 105.78,52.0033 104,47.5C 97.8945,37.589 89.0612,31.2557 77.5,28.5C 77.0825,27.7784 76.4158,27.2784 75.5,27C 77.3875,25.6063 79.3875,24.4396 81.5,23.5 Z"/></g>
<g><path style="opacity:1" fill="#968a96" d="M 99.5,11.5 C 92.469,14.0112 86.469,18.0112 81.5,23.5C 79.3875,24.4396 77.3875,25.6063 75.5,27C 76.4158,27.2784 77.0825,27.7784 77.5,28.5C 74.7079,28.6225 72.7079,29.9558 71.5,32.5C 64.8333,38.8333 58.1667,45.1667 51.5,51.5C 41.2199,42.888 31.5532,33.5547 22.5,23.5C 41.3716,5.03259 63.7049,-0.467408 89.5,7C 92.965,8.32183 96.2983,9.82183 99.5,11.5 Z"/></g>
<g><path style="opacity:1" fill="#fd99a1" d="M 71.5,32.5 C 76.7669,33.5889 81.7669,35.2556 86.5,37.5C 69.2518,53.2458 52.4185,69.5791 36,86.5C 35.5034,88.8098 35.3367,91.1432 35.5,93.5C 34.6762,89.6877 34.1762,85.6877 34,81.5C 30.4272,79.1602 26.5938,78.8269 22.5,80.5C 31.8604,70.4729 41.5271,60.8063 51.5,51.5C 58.1667,45.1667 64.8333,38.8333 71.5,32.5 Z"/></g>
<g><path style="opacity:1" fill="#978a97" d="M 126.5,39.5 C 133.911,51.3912 136.411,64.3912 134,78.5C 131.528,92.7772 125.361,105.111 115.5,115.5C 105.167,106.167 94.8333,96.8333 84.5,87.5C 97.1858,74.3144 110.019,61.3144 123,48.5C 124.741,45.6907 125.908,42.6907 126.5,39.5 Z"/></g>
<g><path style="opacity:1" fill="#e15969" d="M 96.5,46.5 C 101.07,51.5424 103.07,57.5424 102.5,64.5C 94.8737,73.2961 87.0403,81.9627 79,90.5C 71.6851,97.9811 64.1851,105.314 56.5,112.5C 57.5269,108.554 57.6936,104.554 57,100.5C 54.4537,97.8144 51.287,96.8144 47.5,97.5C 61.1069,83.0605 75.2736,69.0605 90,55.5C 92.41,52.6032 94.5767,49.6032 96.5,46.5 Z"/></g>
<g><path style="opacity:1" fill="#f04c50" d="M 86.5,37.5 C 90.4558,39.7881 93.7891,42.7881 96.5,46.5C 94.5767,49.6032 92.41,52.6032 90,55.5C 75.2736,69.0605 61.1069,83.0605 47.5,97.5C 44.3598,99.1898 41.0265,99.6898 37.5,99C 36.1387,97.4157 35.472,95.5824 35.5,93.5C 35.3367,91.1432 35.5034,88.8098 36,86.5C 52.4185,69.5791 69.2518,53.2458 86.5,37.5 Z"/></g>
<g><path style="opacity:1" fill="#6c6070" d="M 125.5,38.5 C 126.167,38.5 126.5,38.8333 126.5,39.5C 125.908,42.6907 124.741,45.6907 123,48.5C 110.019,61.3144 97.1858,74.3144 84.5,87.5C 76.0629,96.4382 67.3963,105.272 58.5,114C 49.268,117.142 39.9347,119.975 30.5,122.5C 27.8875,121.905 27.8875,121.071 30.5,120C 39.3744,117.786 48.0411,115.286 56.5,112.5C 64.1851,105.314 71.6851,97.9811 79,90.5C 87.0403,81.9627 94.8737,73.2961 102.5,64.5C 104.404,64.2624 105.738,63.2624 106.5,61.5C 108.858,59.4707 111.192,57.4707 113.5,55.5C 118.739,50.681 122.739,45.0143 125.5,38.5 Z"/></g>
<g><path style="opacity:1" fill="#a497a4" d="M 84.5,87.5 C 94.8333,96.8333 105.167,106.167 115.5,115.5C 91.7434,137.191 65.41,141.024 36.5,127C 34.2528,125.723 32.2528,124.223 30.5,122.5C 39.9347,119.975 49.268,117.142 58.5,114C 67.3963,105.272 76.0629,96.4382 84.5,87.5 Z"/></g>
<g><path style="opacity:1" fill="#6e5e6e" d="M 13.5,113.5 C 17.0801,115.408 20.0801,118.074 22.5,121.5C 19.3577,123.119 16.0244,124.119 12.5,124.5C 12.9422,120.846 13.2756,117.179 13.5,113.5 Z"/></g>
</svg>
