<?xml version="1.0" encoding="UTF-8"?>
<!DOCTYPE svg PUBLIC "-//W3C//DTD SVG 1.1//EN" "http://www.w3.org/Graphics/SVG/1.1/DTD/svg11.dtd">
<svg xmlns="http://www.w3.org/2000/svg" version="1.1" width="152px" height="140px" style="shape-rendering:geometricPrecision; text-rendering:geometricPrecision; image-rendering:optimizeQuality; fill-rule:evenodd; clip-rule:evenodd" xmlns:xlink="http://www.w3.org/1999/xlink">
<g><path style="opacity:1" fill="#e7e7e7" d="M -0.5,-0.5 C 50.1667,-0.5 100.833,-0.5 151.5,-0.5C 151.5,46.1667 151.5,92.8333 151.5,139.5C 100.833,139.5 50.1667,139.5 -0.5,139.5C -0.5,92.8333 -0.5,46.1667 -0.5,-0.5 Z"/></g>
<g><path style="opacity:1" fill="#fd99a1" d="M 125.5,27.5 C 124.957,27.56 124.624,27.8933 124.5,28.5C 131.674,46.0514 129.341,62.0514 117.5,76.5C 115.552,78.7887 113.552,81.122 111.5,83.5C 112.472,85.3049 113.639,86.9716 115,88.5C 122.987,96.6539 131.154,104.654 139.5,112.5C 140.086,112.291 140.586,111.957 141,111.5C 141.333,108.5 141.667,105.5 142,102.5C 142.232,103.737 142.732,104.737 143.5,105.5C 143.61,113.721 139.61,118.054 131.5,118.5C 129.02,117.758 126.687,116.758 124.5,115.5C 118.166,107.661 111.999,99.6613 106,91.5C 105.329,90.7476 104.496,90.4142 103.5,90.5C 103.53,89.5028 103.03,88.8361 102,88.5C 93.8382,91.8323 85.3382,93.1656 76.5,92.5C 69.5404,90.8418 63.207,87.8418 57.5,83.5C 56.8933,83.6236 56.56,83.9569 56.5,84.5C 35.811,66.0587 32.1444,44.7254 45.5,20.5C 50.0436,14.9004 55.377,10.2337 61.5,6.5C 88.5451,-3.70699 109.878,3.29301 125.5,27.5 Z"/></g>
<g><path style="opacity:1" fill="#a599a6" d="M 61.5,6.5 C 55.377,10.2337 50.0436,14.9004 45.5,20.5C 41.9581,20.8128 38.6248,20.4794 35.5,19.5C 42.7754,12.5989 51.4421,8.26557 61.5,6.5 Z"/></g>
<g><path style="opacity:1" fill="#f1bfc7" d="M 94.5,14.5 C 95.0488,16.9013 95.8822,19.2346 97,21.5C 97.8195,40.5733 97.6529,59.5733 96.5,78.5C 78.1502,84.6476 63.6502,79.6476 53,63.5C 43.4494,39.0994 50.9494,22.2661 75.5,13C 81.9956,12.0826 88.3289,12.5826 94.5,14.5 Z"/></g>
<g><path style="opacity:1" fill="#f5d2d8" d="M 70.5,19.5 C 72.5273,19.3379 74.5273,19.5045 76.5,20C 77.5536,21.3876 77.7203,22.8876 77,24.5C 72.8153,27.5951 68.8153,30.9284 65,34.5C 63.3333,38.1667 61.6667,41.8333 60,45.5C 58.6124,46.5536 57.1124,46.7203 55.5,46C 54.3977,43.5991 54.231,41.0991 55,38.5C 59.3042,31.3723 64.4709,25.039 70.5,19.5 Z"/></g>
<g><path style="opacity:1" fill="#fec1c7" d="M 94.5,14.5 C 118.15,26.2923 123.65,43.959 111,67.5C 107.093,72.5208 102.26,76.1875 96.5,78.5C 97.6529,59.5733 97.8195,40.5733 97,21.5C 95.8822,19.2346 95.0488,16.9013 94.5,14.5 Z"/></g>
<g><path style="opacity:1" fill="#968095" d="M 26.5,21.5 C 29.2705,26.8301 28.7705,32.1634 25,37.5C 19.927,41.6894 14.0937,43.3561 7.5,42.5C 7.5,42.1667 7.5,41.8333 7.5,41.5C 13.7778,34.8861 20.1112,28.2194 26.5,21.5 Z"/></g>
<g><path style="opacity:1" fill="#c7b4c7" d="M 35.5,19.5 C 38.6248,20.4794 41.9581,20.8128 45.5,20.5C 32.1444,44.7254 35.811,66.0587 56.5,84.5C 62.1483,89.6556 68.815,92.6556 76.5,93.5C 79.2869,94.4767 82.2869,94.81 85.5,94.5C 86.6491,101.528 84.9825,107.695 80.5,113C 78.3496,114.411 76.0163,115.245 73.5,115.5C 54.4971,115.667 35.4971,115.5 16.5,115C 15.7562,113.961 14.7562,113.461 13.5,113.5C 11.4776,111.469 9.81094,109.135 8.5,106.5C 7.53335,85.1999 7.20002,63.8666 7.5,42.5C 14.0937,43.3561 19.927,41.6894 25,37.5C 28.7705,32.1634 29.2705,26.8301 26.5,21.5C 26.6107,20.8826 26.944,20.3826 27.5,20C 30.146,19.5026 32.8127,19.3359 35.5,19.5 Z"/></g>
<g><path style="opacity:1" fill="#a497a4" d="M 126.5,29.5 C 129.852,32.6953 132.685,36.362 135,40.5C 142.632,57.8713 143.465,75.538 137.5,93.5C 130.847,89.1708 124.847,84.1708 119.5,78.5C 131.208,63.5244 133.541,47.191 126.5,29.5 Z"/></g>
<g><path style="opacity:1" fill="#d2c9d3" d="M 7.5,41.5 C 7.5,41.8333 7.5,42.1667 7.5,42.5C 7.20002,63.8666 7.53335,85.1999 8.5,106.5C 7.77842,106.082 7.27842,105.416 7,104.5C 6.17065,83.3293 6.33732,62.3293 7.5,41.5 Z"/></g>
<g><path style="opacity:1" fill="#e25b6a" d="M 125.5,27.5 C 125.833,28.1667 126.167,28.8333 126.5,29.5C 133.541,47.191 131.208,63.5244 119.5,78.5C 118.167,78.5 117.5,77.8333 117.5,76.5C 129.341,62.0514 131.674,46.0514 124.5,28.5C 124.624,27.8933 124.957,27.56 125.5,27.5 Z"/></g>
<g><path style="opacity:1" fill="#fa919b" d="M 117.5,76.5 C 117.5,77.8333 118.167,78.5 119.5,78.5C 124.847,84.1708 130.847,89.1708 137.5,93.5C 141.169,96.8406 143.836,100.841 145.5,105.5C 144.604,104.494 143.938,104.494 143.5,105.5C 142.732,104.737 142.232,103.737 142,102.5C 141.667,105.5 141.333,108.5 141,111.5C 140.586,111.957 140.086,112.291 139.5,112.5C 131.154,104.654 122.987,96.6539 115,88.5C 113.639,86.9716 112.472,85.3049 111.5,83.5C 113.552,81.122 115.552,78.7887 117.5,76.5 Z"/></g>
<g><path style="opacity:1" fill="#e97b87" d="M 56.5,84.5 C 56.56,83.9569 56.8933,83.6236 57.5,83.5C 63.207,87.8418 69.5404,90.8418 76.5,92.5C 76.5,92.8333 76.5,93.1667 76.5,93.5C 68.815,92.6556 62.1483,89.6556 56.5,84.5 Z"/></g>
<g><path style="opacity:1" fill="#e15c6b" d="M 103.5,90.5 C 98.6126,92.24 93.6126,93.5733 88.5,94.5C 87.5,94.5 86.5,94.5 85.5,94.5C 82.2869,94.81 79.2869,94.4767 76.5,93.5C 76.5,93.1667 76.5,92.8333 76.5,92.5C 85.3382,93.1656 93.8382,91.8323 102,88.5C 103.03,88.8361 103.53,89.5028 103.5,90.5 Z"/></g>
<g><path style="opacity:1" fill="#a397a3" d="M 103.5,90.5 C 104.496,90.4142 105.329,90.7476 106,91.5C 111.999,99.6613 118.166,107.661 124.5,115.5C 119.059,120.608 113.059,124.941 106.5,128.5C 101.759,117.34 95.7589,107.006 88.5,97.5C 88.5,96.5 88.5,95.5 88.5,94.5C 93.6126,93.5733 98.6126,92.24 103.5,90.5 Z"/></g>
<g><path style="opacity:1" fill="#9c8c9c" d="M 88.5,97.5 C 95.7589,107.006 101.759,117.34 106.5,128.5C 83.9939,139.93 61.9939,139.097 40.5,126C 37.3343,124 34.6676,121.5 32.5,118.5C 47.5037,118.667 62.5037,118.5 77.5,118C 85.2505,113.331 88.9171,106.498 88.5,97.5 Z"/></g>
<g><path style="opacity:1" fill="#937d93" d="M 85.5,94.5 C 86.5,94.5 87.5,94.5 88.5,94.5C 88.5,95.5 88.5,96.5 88.5,97.5C 88.9171,106.498 85.2505,113.331 77.5,118C 62.5037,118.5 47.5037,118.667 32.5,118.5C 28.2648,117.564 23.9315,117.231 19.5,117.5C 37.5,116.833 55.5,116.167 73.5,115.5C 76.0163,115.245 78.3496,114.411 80.5,113C 84.9825,107.695 86.6491,101.528 85.5,94.5 Z"/></g>
<g><path style="opacity:1" fill="#e26572" d="M 145.5,105.5 C 146.392,113.443 142.892,118.11 135,119.5C 133.615,119.486 132.449,119.152 131.5,118.5C 139.61,118.054 143.61,113.721 143.5,105.5C 143.938,104.494 144.604,104.494 145.5,105.5 Z"/></g>
<g><path style="opacity:1" fill="#ae9bae" d="M 13.5,113.5 C 14.7562,113.461 15.7562,113.961 16.5,115C 35.4971,115.5 54.4971,115.667 73.5,115.5C 55.5,116.167 37.5,116.833 19.5,117.5C 16.8021,117.155 14.8021,115.822 13.5,113.5 Z"/></g>
</svg>
